{
  "asset": {
    "generator": "Khronos glTF Blender I/O v4.2.60",
    "version": "2.0"
  },
  "scene": 0,
  "scenes": [
    {
      "name": "Scene",
      "nodes": [
        0
      ]
    }
  ],
  "nodes": [
    {
      "mesh": 0,
      "name": "dead_quiver_branch_01"
    }
  ],
  "materials": [
    {
      "doubleSided": true,
      "name": "dead_quiver_branch_01",
      "normalTexture": {
        "index": 0
      },
      "pbrMetallicRoughness": {
        "baseColorTexture": {
          "index": 1
        },
        "metallicFactor": 0,
        "metallicRoughnessTexture": {
          "index": 2
        }
      }
    }
  ],
  "meshes": [
    {
      "name": "realCap_Model_2",
      "primitives": [
        {
          "attributes": {
            "POSITION": 0,
            "NORMAL": 1,
            "TEXCOORD_0": 2
          },
          "indices": 3,
          "material": 0
        }
      ]
    }
  ],
  "textures": [
    {
      "sampler": 0,
      "source": 0
    },
    {
      "sampler": 0,
      "source": 1
    },
    {
      "sampler": 0,
      "source": 2
    }
  ],
  "images": [
    {
      "mimeType": "image/jpeg",
      "name": "dead_quiver_branch_01_nor_gl",
      "uri": "textures/dead_quiver_branch_01_nor_gl_1k.jpg"
    },
    {
      "mimeType": "image/jpeg",
      "name": "dead_quiver_branch_01_diff",
      "uri": "textures/dead_quiver_branch_01_diff_1k.jpg"
    },
    {
      "mimeType": "image/jpeg",
      "name": "dead_quiver_branch_01_rough",
      "uri": "textures/dead_quiver_branch_01_arm_1k.jpg"
    }
  ],
  "accessors": [
    {
      "bufferView": 0,
      "componentType": 5126,
      "count": 8566,
      "max": [
        0.10245370119810104,
        0.4393458068370819,
        0.12978598475456238
      ],
      "min": [
        -0.15245135128498077,
        0.0006507993093691766,
        -0.09718222171068192
      ],
      "type": "VEC3"
    },
    {
      "bufferView": 1,
      "componentType": 5126,
      "count": 8566,
      "type": "VEC3"
    },
    {
      "bufferView": 2,
      "componentType": 5126,
      "count": 8566,
      "type": "VEC2"
    },
    {
      "bufferView": 3,
      "componentType": 5123,
      "count": 44502,
      "type": "SCALAR"
    }
  ],
  "bufferViews": [
    {
      "buffer": 0,
      "byteLength": 102792,
      "byteOffset": 0,
      "target": 34962
    },
    {
      "buffer": 0,
      "byteLength": 102792,
      "byteOffset": 102792,
      "target": 34962
    },
    {
      "buffer": 0,
      "byteLength": 68528,
      "byteOffset": 205584,
      "target": 34962
    },
    {
      "buffer": 0,
      "byteLength": 89004,
      "byteOffset": 274112,
      "target": 34963
    }
  ],
  "samplers": [
    {
      "magFilter": 9729,
      "minFilter": 9987
    }
  ],
  "buffers": [
    {
      "byteLength": 363116,
      "uri": "dead_quiver_branch_01.bin"
    }
  ]
}